<svg xmlns="http://www.w3.org/2000/svg" xmlns:xlink="http://www.w3.org/1999/xlink" xmlns:s="https://github.com/nturley/netlistsvg" width="1002" height="433">
  <style>svg {
    stroke:#000;
    fill:none;
  }
  text {
    fill:#000;
    stroke:none;
    font-size:10px;
    font-weight: bold;
    font-family: "Courier New", monospace;
  }
  .nodelabel {
    text-anchor: middle;
  }
  .inputPortLabel {
    text-anchor: end;
  }
  .splitjoinBody {
    fill:#000;
  }</style>
  <g s:type="add" transform="translate(203,90.5)" s:width="25" s:height="25" id="cell_$add$guarded_unsigned_counter.v:38$11">
    <s:alias val="$add"/>
    <circle r="12.5" cx="12.5" cy="12.5" class="cell_$add$guarded_unsigned_counter.v:38$11"/>
    <line x1="7.5" x2="17.5" y1="12.5" y2="12.5" class="cell_$add$guarded_unsigned_counter.v:38$11"/>
    <line x1="12.5" x2="12.5" y1="7.5" y2="17.5" class="cell_$add$guarded_unsigned_counter.v:38$11"/>
    <g s:x="3" s:y="5" s:pid="A"/>
    <g s:x="3" s:y="20" s:pid="B"/>
    <g s:x="25" s:y="12.5" s:pid="Y"/>
  </g>
  <g s:type="add" transform="translate(461,229)" s:width="25" s:height="25" id="cell_$add$guarded_unsigned_counter.v:44$13">
    <s:alias val="$add"/>
    <circle r="12.5" cx="12.5" cy="12.5" class="cell_$add$guarded_unsigned_counter.v:44$13"/>
    <line x1="7.5" x2="17.5" y1="12.5" y2="12.5" class="cell_$add$guarded_unsigned_counter.v:44$13"/>
    <line x1="12.5" x2="12.5" y1="7.5" y2="17.5" class="cell_$add$guarded_unsigned_counter.v:44$13"/>
    <g s:x="3" s:y="5" s:pid="A"/>
    <g s:x="3" s:y="20" s:pid="B"/>
    <g s:x="25" s:y="12.5" s:pid="Y"/>
  </g>
  <g s:type="add" transform="translate(576,226.5)" s:width="25" s:height="25" id="cell_$add$guarded_unsigned_counter.v:44$14">
    <s:alias val="$add"/>
    <circle r="12.5" cx="12.5" cy="12.5" class="cell_$add$guarded_unsigned_counter.v:44$14"/>
    <line x1="7.5" x2="17.5" y1="12.5" y2="12.5" class="cell_$add$guarded_unsigned_counter.v:44$14"/>
    <line x1="12.5" x2="12.5" y1="7.5" y2="17.5" class="cell_$add$guarded_unsigned_counter.v:44$14"/>
    <g s:x="3" s:y="5" s:pid="A"/>
    <g s:x="3" s:y="20" s:pid="B"/>
    <g s:x="25" s:y="12.5" s:pid="Y"/>
  </g>
  <g s:type="add" transform="translate(691,346)" s:width="25" s:height="25" id="cell_$add$guarded_unsigned_counter.v:44$15">
    <s:alias val="$add"/>
    <circle r="12.5" cx="12.5" cy="12.5" class="cell_$add$guarded_unsigned_counter.v:44$15"/>
    <line x1="7.5" x2="17.5" y1="12.5" y2="12.5" class="cell_$add$guarded_unsigned_counter.v:44$15"/>
    <line x1="12.5" x2="12.5" y1="7.5" y2="17.5" class="cell_$add$guarded_unsigned_counter.v:44$15"/>
    <g s:x="3" s:y="5" s:pid="A"/>
    <g s:x="3" s:y="20" s:pid="B"/>
    <g s:x="25" s:y="12.5" s:pid="Y"/>
  </g>
  <g s:type="add" transform="translate(461,150.5)" s:width="25" s:height="25" id="cell_$add$guarded_unsigned_counter.v:49$17">
    <s:alias val="$add"/>
    <circle r="12.5" cx="12.5" cy="12.5" class="cell_$add$guarded_unsigned_counter.v:49$17"/>
    <line x1="7.5" x2="17.5" y1="12.5" y2="12.5" class="cell_$add$guarded_unsigned_counter.v:49$17"/>
    <line x1="12.5" x2="12.5" y1="7.5" y2="17.5" class="cell_$add$guarded_unsigned_counter.v:49$17"/>
    <g s:x="3" s:y="5" s:pid="A"/>
    <g s:x="3" s:y="20" s:pid="B"/>
    <g s:x="25" s:y="12.5" s:pid="Y"/>
  </g>
  <g s:type="add" transform="translate(576,148)" s:width="25" s:height="25" id="cell_$add$guarded_unsigned_counter.v:49$18">
    <s:alias val="$add"/>
    <circle r="12.5" cx="12.5" cy="12.5" class="cell_$add$guarded_unsigned_counter.v:49$18"/>
    <line x1="7.5" x2="17.5" y1="12.5" y2="12.5" class="cell_$add$guarded_unsigned_counter.v:49$18"/>
    <line x1="12.5" x2="12.5" y1="7.5" y2="17.5" class="cell_$add$guarded_unsigned_counter.v:49$18"/>
    <g s:x="3" s:y="5" s:pid="A"/>
    <g s:x="3" s:y="20" s:pid="B"/>
    <g s:x="25" s:y="12.5" s:pid="Y"/>
  </g>
  <g s:type="add" transform="translate(691,145.5)" s:width="25" s:height="25" id="cell_$add$guarded_unsigned_counter.v:49$19">
    <s:alias val="$add"/>
    <circle r="12.5" cx="12.5" cy="12.5" class="cell_$add$guarded_unsigned_counter.v:49$19"/>
    <line x1="7.5" x2="17.5" y1="12.5" y2="12.5" class="cell_$add$guarded_unsigned_counter.v:49$19"/>
    <line x1="12.5" x2="12.5" y1="7.5" y2="17.5" class="cell_$add$guarded_unsigned_counter.v:49$19"/>
    <g s:x="3" s:y="5" s:pid="A"/>
    <g s:x="3" s:y="20" s:pid="B"/>
    <g s:x="25" s:y="12.5" s:pid="Y"/>
  </g>
  <g s:type="generic" transform="translate(841,358)" s:width="30" s:height="40" id="cell_$procdff$45">
    <text x="15" y="-4" class="nodelabel cell_$procdff$45" s:attribute="ref">$adff</text>
    <rect width="30" height="60" s:generic="body" class="cell_$procdff$45"/>
    <g transform="translate(0,10)" s:x="0" s:y="10" s:pid="in0" id="port_$procdff$45~ARST">
      <text x="-3" y="-4" class="inputPortLabel cell_$procdff$45">ARST</text>
    </g>
    <g transform="translate(0,30)" s:x="0" s:y="10" s:pid="in0" id="port_$procdff$45~CLK">
      <text x="-3" y="-4" class="inputPortLabel cell_$procdff$45">CLK</text>
    </g>
    <g transform="translate(0,50)" s:x="0" s:y="10" s:pid="in0" id="port_$procdff$45~D">
      <text x="-3" y="-4" class="inputPortLabel cell_$procdff$45">D</text>
    </g>
    <g transform="translate(30,10)" s:x="30" s:y="10" s:pid="out0" id="port_$procdff$45~Q">
      <text x="5" y="-4" style="fill:#000; stroke:none" class="cell_$procdff$45">Q</text>
    </g>
  </g>
  <g s:type="generic" transform="translate(102,85)" s:width="30" s:height="40" id="cell_$procdff$46">
    <text x="15" y="-4" class="nodelabel cell_$procdff$46" s:attribute="ref">$adff</text>
    <rect width="30" height="60" s:generic="body" class="cell_$procdff$46"/>
    <g transform="translate(0,10)" s:x="0" s:y="10" s:pid="in0" id="port_$procdff$46~ARST">
      <text x="-3" y="-4" class="inputPortLabel cell_$procdff$46">ARST</text>
    </g>
    <g transform="translate(0,30)" s:x="0" s:y="10" s:pid="in0" id="port_$procdff$46~CLK">
      <text x="-3" y="-4" class="inputPortLabel cell_$procdff$46">CLK</text>
    </g>
    <g transform="translate(0,50)" s:x="0" s:y="10" s:pid="in0" id="port_$procdff$46~D">
      <text x="-3" y="-4" class="inputPortLabel cell_$procdff$46">D</text>
    </g>
    <g transform="translate(30,10)" s:x="30" s:y="10" s:pid="out0" id="port_$procdff$46~Q">
      <text x="5" y="-4" style="fill:#000; stroke:none" class="cell_$procdff$46">Q</text>
    </g>
  </g>
  <g s:type="generic" transform="translate(841,97.5)" s:width="30" s:height="40" id="cell_$procdff$47">
    <text x="15" y="-4" class="nodelabel cell_$procdff$47" s:attribute="ref">$adff</text>
    <rect width="30" height="60" s:generic="body" class="cell_$procdff$47"/>
    <g transform="translate(0,10)" s:x="0" s:y="10" s:pid="in0" id="port_$procdff$47~ARST">
      <text x="-3" y="-4" class="inputPortLabel cell_$procdff$47">ARST</text>
    </g>
    <g transform="translate(0,30)" s:x="0" s:y="10" s:pid="in0" id="port_$procdff$47~CLK">
      <text x="-3" y="-4" class="inputPortLabel cell_$procdff$47">CLK</text>
    </g>
    <g transform="translate(0,50)" s:x="0" s:y="10" s:pid="in0" id="port_$procdff$47~D">
      <text x="-3" y="-4" class="inputPortLabel cell_$procdff$47">D</text>
    </g>
    <g transform="translate(30,10)" s:x="30" s:y="10" s:pid="out0" id="port_$procdff$47~Q">
      <text x="5" y="-4" style="fill:#000; stroke:none" class="cell_$procdff$47">Q</text>
    </g>
  </g>
  <g s:type="mux" transform="translate(756,128)" s:width="20" s:height="40" id="cell_$procmux$21">
    <s:alias val="$pmux"/>
    <s:alias val="$mux"/>
    <s:alias val="$_MUX_"/>
    <path d="M0,0 L20,10 L20,30 L0,40 Z" class="cell_$procmux$21"/>
    <g s:x="0" s:y="10" s:pid="A"/>
    <g s:x="0" s:y="30" s:pid="B"/>
    <g s:x="10" s:y="35" s:pid="S"/>
    <g s:x="20" s:y="20" s:pid="Y"/>
  </g>
  <g s:type="mux" transform="translate(636,130.5)" s:width="20" s:height="40" id="cell_$procmux$24">
    <s:alias val="$pmux"/>
    <s:alias val="$mux"/>
    <s:alias val="$_MUX_"/>
    <path d="M0,0 L20,10 L20,30 L0,40 Z" class="cell_$procmux$24"/>
    <g s:x="0" s:y="10" s:pid="A"/>
    <g s:x="0" s:y="30" s:pid="B"/>
    <g s:x="10" s:y="35" s:pid="S"/>
    <g s:x="20" s:y="20" s:pid="Y"/>
  </g>
  <g s:type="mux" transform="translate(521,133)" s:width="20" s:height="40" id="cell_$procmux$27">
    <s:alias val="$pmux"/>
    <s:alias val="$mux"/>
    <s:alias val="$_MUX_"/>
    <path d="M0,0 L20,10 L20,30 L0,40 Z" class="cell_$procmux$27"/>
    <g s:x="0" s:y="10" s:pid="A"/>
    <g s:x="0" s:y="30" s:pid="B"/>
    <g s:x="10" s:y="35" s:pid="S"/>
    <g s:x="20" s:y="20" s:pid="Y"/>
  </g>
  <g s:type="mux" transform="translate(346.3333333333333,204)" s:width="20" s:height="40" id="cell_$procmux$30">
    <s:alias val="$pmux"/>
    <s:alias val="$mux"/>
    <s:alias val="$_MUX_"/>
    <path d="M0,0 L20,10 L20,30 L0,40 Z" class="cell_$procmux$30"/>
    <g s:x="0" s:y="10" s:pid="A"/>
    <g s:x="0" s:y="30" s:pid="B"/>
    <g s:x="10" s:y="35" s:pid="S"/>
    <g s:x="20" s:y="20" s:pid="Y"/>
  </g>
  <g s:type="mux" transform="translate(756,328.5)" s:width="20" s:height="40" id="cell_$procmux$33">
    <s:alias val="$pmux"/>
    <s:alias val="$mux"/>
    <s:alias val="$_MUX_"/>
    <path d="M0,0 L20,10 L20,30 L0,40 Z" class="cell_$procmux$33"/>
    <g s:x="0" s:y="10" s:pid="A"/>
    <g s:x="0" s:y="30" s:pid="B"/>
    <g s:x="10" s:y="35" s:pid="S"/>
    <g s:x="20" s:y="20" s:pid="Y"/>
  </g>
  <g s:type="mux" transform="translate(636,209)" s:width="20" s:height="40" id="cell_$procmux$36">
    <s:alias val="$pmux"/>
    <s:alias val="$mux"/>
    <s:alias val="$_MUX_"/>
    <path d="M0,0 L20,10 L20,30 L0,40 Z" class="cell_$procmux$36"/>
    <g s:x="0" s:y="10" s:pid="A"/>
    <g s:x="0" s:y="30" s:pid="B"/>
    <g s:x="10" s:y="35" s:pid="S"/>
    <g s:x="20" s:y="20" s:pid="Y"/>
  </g>
  <g s:type="mux" transform="translate(521,211.5)" s:width="20" s:height="40" id="cell_$procmux$39">
    <s:alias val="$pmux"/>
    <s:alias val="$mux"/>
    <s:alias val="$_MUX_"/>
    <path d="M0,0 L20,10 L20,30 L0,40 Z" class="cell_$procmux$39"/>
    <g s:x="0" s:y="10" s:pid="A"/>
    <g s:x="0" s:y="30" s:pid="B"/>
    <g s:x="10" s:y="35" s:pid="S"/>
    <g s:x="20" s:y="20" s:pid="Y"/>
  </g>
  <g s:type="mux" transform="translate(346.3333333333333,306)" s:width="20" s:height="40" id="cell_$procmux$42">
    <s:alias val="$pmux"/>
    <s:alias val="$mux"/>
    <s:alias val="$_MUX_"/>
    <path d="M0,0 L20,10 L20,30 L0,40 Z" class="cell_$procmux$42"/>
    <g s:x="0" s:y="10" s:pid="A"/>
    <g s:x="0" s:y="30" s:pid="B"/>
    <g s:x="10" s:y="35" s:pid="S"/>
    <g s:x="20" s:y="20" s:pid="Y"/>
  </g>
  <g s:type="inputExt" transform="translate(12,378.5)" s:width="30" s:height="20" id="cell_clk">
    <text x="15" y="-4" class="nodelabel cell_clk" s:attribute="ref">clk</text>
    <s:alias val="$_inputExt_"/>
    <path d="M0,0 L0,20 L15,20 L30,10 L15,0 Z" class="cell_clk"/>
    <g s:x="28" s:y="10" s:pid="Y"/>
  </g>
  <g s:type="inputExt" transform="translate(12,22)" s:width="30" s:height="20" id="cell_rstn">
    <text x="15" y="-4" class="nodelabel cell_rstn" s:attribute="ref">rstn</text>
    <s:alias val="$_inputExt_"/>
    <path d="M0,0 L0,20 L15,20 L30,10 L15,0 Z" class="cell_rstn"/>
    <g s:x="28" s:y="10" s:pid="Y"/>
  </g>
  <g s:type="outputExt" transform="translate(942,33)" s:width="30" s:height="20" id="cell_out">
    <text x="15" y="-4" class="nodelabel cell_out" s:attribute="ref">out</text>
    <s:alias val="$_outputExt_"/>
    <path d="M30,0 L30,20 L15,20 L0,10 L15,0 Z" class="cell_out"/>
    <g s:x="0" s:y="10" s:pid="A"/>
  </g>
  <g s:type="outputExt" transform="translate(942,98)" s:width="30" s:height="20" id="cell_even_bit">
    <text x="15" y="-4" class="nodelabel cell_even_bit" s:attribute="ref">even_bit</text>
    <s:alias val="$_outputExt_"/>
    <path d="M30,0 L30,20 L15,20 L0,10 L15,0 Z" class="cell_even_bit"/>
    <g s:x="0" s:y="10" s:pid="A"/>
  </g>
  <g s:type="outputExt" transform="translate(942,358.5)" s:width="30" s:height="20" id="cell_odd_bit">
    <text x="15" y="-4" class="nodelabel cell_odd_bit" s:attribute="ref">odd_bit</text>
    <s:alias val="$_outputExt_"/>
    <path d="M30,0 L30,20 L15,20 L0,10 L15,0 Z" class="cell_odd_bit"/>
    <g s:x="0" s:y="10" s:pid="A"/>
  </g>
  <g s:type="constant" transform="translate(102,356)" s:width="30" s:height="20" id="cell_1">
    <text x="15" y="-4" class="nodelabel cell_1" s:attribute="ref">1</text>
    <s:alias val="$_constant_"/>
    <rect width="30" height="20" class="cell_1"/>
    <g s:x="30" s:y="10" s:pid="Y"/>
  </g>
  <g s:type="constant" transform="translate(343,155.5)" s:width="30" s:height="20" id="cell_000">
    <text x="15" y="-4" class="nodelabel cell_000" s:attribute="ref">000</text>
    <s:alias val="$_constant_"/>
    <rect width="30" height="20" class="cell_000"/>
    <g s:x="30" s:y="10" s:pid="Y"/>
  </g>
  <g s:type="constant" transform="translate(263,306)" s:width="30" s:height="20" id="cell_0">
    <text x="15" y="-4" class="nodelabel cell_0" s:attribute="ref">0</text>
    <s:alias val="$_constant_"/>
    <rect width="30" height="20" class="cell_0"/>
    <g s:x="30" s:y="10" s:pid="Y"/>
  </g>
  <g s:type="join" transform="translate(420,213.5)" s:width="4" s:height="40" id="cell_$join$,28,79,80,81,">
    <rect width="5" height="40" class="splitjoinBody" s:generic="body"/>
    <s:alias val="$_join_"/>
    <g s:x="5" s:y="20" s:pid="out"/>
    <g transform="translate(0,10)" s:x="0" s:y="10" s:pid="in0">
      <text x="-3" y="-4" class="inputPortLabel">0</text>
    </g>
    <g transform="translate(0,30)" s:x="0" s:y="10" s:pid="in0">
      <text x="-3" y="-4" class="inputPortLabel">1:3</text>
    </g>
  </g>
  <g s:type="join" transform="translate(420,135)" s:width="4" s:height="40" id="cell_$join$,49,79,80,81,">
    <rect width="5" height="40" class="splitjoinBody" s:generic="body"/>
    <s:alias val="$_join_"/>
    <g s:x="5" s:y="20" s:pid="out"/>
    <g transform="translate(0,10)" s:x="0" s:y="10" s:pid="in0">
      <text x="-3" y="-4" class="inputPortLabel">0</text>
    </g>
    <g transform="translate(0,30)" s:x="0" s:y="10" s:pid="in0">
      <text x="-3" y="-4" class="inputPortLabel">1:3</text>
    </g>
  </g>
  <g s:type="split" transform="translate(279.42857142857144,82.5)" s:width="5" s:height="40" id="cell_$split$,20,21,22,23,24,25,26,27,">
    <rect width="5" height="160" class="splitjoinBody" s:generic="body"/>
    <s:alias val="$_split_"/>
    <g s:x="0" s:y="20" s:pid="in"/>
    <g transform="translate(4,10)" s:x="4" s:y="10" s:pid="out0">
      <text x="5" y="-4">6</text>
    </g>
    <g transform="translate(4,30)" s:x="4" s:y="10" s:pid="out0">
      <text x="5" y="-4">4</text>
    </g>
    <g transform="translate(4,50)" s:x="4" s:y="10" s:pid="out0">
      <text x="5" y="-4">2</text>
    </g>
    <g transform="translate(4,70)" s:x="4" s:y="10" s:pid="out0">
      <text x="5" y="-4">0</text>
    </g>
    <g transform="translate(4,90)" s:x="4" s:y="10" s:pid="out0">
      <text x="5" y="-4">7</text>
    </g>
    <g transform="translate(4,110)" s:x="4" s:y="10" s:pid="out0">
      <text x="5" y="-4">5</text>
    </g>
    <g transform="translate(4,130)" s:x="4" s:y="10" s:pid="out0">
      <text x="5" y="-4">3</text>
    </g>
    <g transform="translate(4,150)" s:x="4" s:y="10" s:pid="out0">
      <text x="5" y="-4">1</text>
    </g>
  </g>
  <line x1="133" x2="206" y1="95.5" y2="95.5" class="net_4,5,6,7,8,9,10,11"/>
  <line x1="133" x2="178" y1="95.5" y2="95.5" class="net_4,5,6,7,8,9,10,11"/>
  <line x1="178" x2="178" y1="95.5" y2="43" class="net_4,5,6,7,8,9,10,11"/>
  <circle cx="178" cy="95.5" r="2" style="fill:#000" class="net_4,5,6,7,8,9,10,11"/>
  <line x1="178" x2="942" y1="43" y2="43" class="net_4,5,6,7,8,9,10,11"/>
  <line x1="132" x2="178" y1="366" y2="366" class="net_78"/>
  <line x1="178" x2="178" y1="366" y2="110.5" class="net_78"/>
  <circle cx="178" cy="366" r="2" style="fill:#000" class="net_78"/>
  <line x1="178" x2="206" y1="110.5" y2="110.5" class="net_78"/>
  <line x1="132" x2="436" y1="366" y2="366" class="net_78"/>
  <line x1="436" x2="436" y1="366" y2="249" class="net_78"/>
  <circle cx="436" cy="249" r="2" style="fill:#000" class="net_78"/>
  <line x1="436" x2="464" y1="249" y2="249" class="net_78"/>
  <line x1="132" x2="551" y1="366" y2="366" class="net_78"/>
  <line x1="551" x2="551" y1="366" y2="246.5" class="net_78"/>
  <circle cx="551" cy="366" r="2" style="fill:#000" class="net_78"/>
  <circle cx="551" cy="246.5" r="2" style="fill:#000" class="net_78"/>
  <line x1="551" x2="579" y1="246.5" y2="246.5" class="net_78"/>
  <line x1="132" x2="694" y1="366" y2="366" class="net_78"/>
  <line x1="132" x2="238" y1="366" y2="366" class="net_78"/>
  <line x1="238" x2="238" y1="366" y2="275" class="net_78"/>
  <line x1="238" x2="403" y1="275" y2="275" class="net_78"/>
  <line x1="403" x2="403" y1="275" y2="366" class="net_78"/>
  <line x1="403" x2="436" y1="366" y2="366" class="net_78"/>
  <line x1="436" x2="436" y1="366" y2="170.5" class="net_78"/>
  <circle cx="238" cy="366" r="2" style="fill:#000" class="net_78"/>
  <circle cx="403" cy="366" r="2" style="fill:#000" class="net_78"/>
  <circle cx="436" cy="366" r="2" style="fill:#000" class="net_78"/>
  <line x1="436" x2="464" y1="170.5" y2="170.5" class="net_78"/>
  <line x1="132" x2="551" y1="366" y2="366" class="net_78"/>
  <line x1="551" x2="551" y1="366" y2="168" class="net_78"/>
  <line x1="551" x2="579" y1="168" y2="168" class="net_78"/>
  <line x1="132" x2="666" y1="366" y2="366" class="net_78"/>
  <line x1="666" x2="666" y1="366" y2="165.5" class="net_78"/>
  <circle cx="666" cy="366" r="2" style="fill:#000" class="net_78"/>
  <line x1="666" x2="694" y1="165.5" y2="165.5" class="net_78"/>
  <line x1="132" x2="323" y1="366" y2="366" class="net_78"/>
  <line x1="323" x2="323" y1="366" y2="234" class="net_78"/>
  <circle cx="323" cy="366" r="2" style="fill:#000" class="net_78"/>
  <line x1="323" x2="346.3333333333333" y1="234" y2="234" class="net_78"/>
  <line x1="132" x2="323" y1="366" y2="366" class="net_78"/>
  <line x1="323" x2="323" y1="366" y2="336" class="net_78"/>
  <circle cx="323" cy="336" r="2" style="fill:#000" class="net_78"/>
  <line x1="323" x2="346.3333333333333" y1="336" y2="336" class="net_78"/>
  <line x1="426" x2="464" y1="234" y2="234" class="net_28,79,80,81"/>
  <line x1="426" x2="446" y1="234" y2="234" class="net_28,79,80,81"/>
  <line x1="446" x2="446" y1="234" y2="218" class="net_28,79,80,81"/>
  <line x1="446" x2="496" y1="218" y2="218" class="net_28,79,80,81"/>
  <line x1="496" x2="496" y1="218" y2="221.5" class="net_28,79,80,81"/>
  <circle cx="446" cy="234" r="2" style="fill:#000" class="net_28,79,80,81"/>
  <line x1="496" x2="521" y1="221.5" y2="221.5" class="net_28,79,80,81"/>
  <line x1="541" x2="579" y1="231.5" y2="231.5" class="net_33,34,35,36"/>
  <line x1="541" x2="561" y1="231.5" y2="231.5" class="net_33,34,35,36"/>
  <line x1="561" x2="561" y1="231.5" y2="215.5" class="net_33,34,35,36"/>
  <line x1="561" x2="621" y1="215.5" y2="215.5" class="net_33,34,35,36"/>
  <line x1="621" x2="621" y1="215.5" y2="219" class="net_33,34,35,36"/>
  <circle cx="561" cy="231.5" r="2" style="fill:#000" class="net_33,34,35,36"/>
  <line x1="621" x2="636" y1="219" y2="219" class="net_33,34,35,36"/>
  <line x1="656" x2="676" y1="229" y2="229" class="net_41,42,43,44"/>
  <line x1="676" x2="676" y1="229" y2="351" class="net_41,42,43,44"/>
  <circle cx="676" cy="229" r="2" style="fill:#000" class="net_41,42,43,44"/>
  <line x1="676" x2="694" y1="351" y2="351" class="net_41,42,43,44"/>
  <line x1="656" x2="736" y1="229" y2="229" class="net_41,42,43,44"/>
  <line x1="736" x2="736" y1="229" y2="338.5" class="net_41,42,43,44"/>
  <line x1="736" x2="756" y1="338.5" y2="338.5" class="net_41,42,43,44"/>
  <line x1="426" x2="464" y1="155.5" y2="155.5" class="net_49,79,80,81"/>
  <line x1="426" x2="436" y1="155.5" y2="155.5" class="net_49,79,80,81"/>
  <line x1="436" x2="436" y1="155.5" y2="139.5" class="net_49,79,80,81"/>
  <line x1="436" x2="496" y1="139.5" y2="139.5" class="net_49,79,80,81"/>
  <line x1="496" x2="496" y1="139.5" y2="143" class="net_49,79,80,81"/>
  <circle cx="436" cy="155.5" r="2" style="fill:#000" class="net_49,79,80,81"/>
  <line x1="496" x2="521" y1="143" y2="143" class="net_49,79,80,81"/>
  <line x1="541" x2="579" y1="153" y2="153" class="net_54,55,56,57"/>
  <line x1="541" x2="551" y1="153" y2="153" class="net_54,55,56,57"/>
  <line x1="551" x2="551" y1="153" y2="137" class="net_54,55,56,57"/>
  <line x1="551" x2="611" y1="137" y2="137" class="net_54,55,56,57"/>
  <line x1="611" x2="611" y1="137" y2="140.5" class="net_54,55,56,57"/>
  <circle cx="551" cy="153" r="2" style="fill:#000" class="net_54,55,56,57"/>
  <line x1="611" x2="636" y1="140.5" y2="140.5" class="net_54,55,56,57"/>
  <line x1="656" x2="694" y1="150.5" y2="150.5" class="net_62,63,64,65"/>
  <line x1="656" x2="666" y1="150.5" y2="150.5" class="net_62,63,64,65"/>
  <line x1="666" x2="666" y1="150.5" y2="134.5" class="net_62,63,64,65"/>
  <line x1="666" x2="736" y1="134.5" y2="134.5" class="net_62,63,64,65"/>
  <line x1="736" x2="736" y1="134.5" y2="138" class="net_62,63,64,65"/>
  <circle cx="666" cy="150.5" r="2" style="fill:#000" class="net_62,63,64,65"/>
  <line x1="736" x2="756" y1="138" y2="138" class="net_62,63,64,65"/>
  <line x1="40" x2="806" y1="32" y2="32" class="net_3"/>
  <line x1="806" x2="806" y1="32" y2="368.5" class="net_3"/>
  <line x1="806" x2="841" y1="368.5" y2="368.5" class="net_3"/>
  <line x1="40" x2="52" y1="32" y2="32" class="net_3"/>
  <line x1="52" x2="52" y1="32" y2="95.5" class="net_3"/>
  <circle cx="52" cy="32" r="2" style="fill:#000" class="net_3"/>
  <line x1="52" x2="102" y1="95.5" y2="95.5" class="net_3"/>
  <line x1="40" x2="806" y1="32" y2="32" class="net_3"/>
  <line x1="806" x2="806" y1="32" y2="108" class="net_3"/>
  <circle cx="806" cy="108" r="2" style="fill:#000" class="net_3"/>
  <line x1="806" x2="841" y1="108" y2="108" class="net_3"/>
  <line x1="40" x2="841" y1="388.5" y2="388.5" class="net_2"/>
  <line x1="40" x2="52" y1="388.5" y2="388.5" class="net_2"/>
  <line x1="52" x2="52" y1="388.5" y2="115.5" class="net_2"/>
  <circle cx="52" cy="388.5" r="2" style="fill:#000" class="net_2"/>
  <line x1="52" x2="102" y1="115.5" y2="115.5" class="net_2"/>
  <line x1="40" x2="796" y1="388.5" y2="388.5" class="net_2"/>
  <line x1="796" x2="796" y1="388.5" y2="128" class="net_2"/>
  <circle cx="796" cy="388.5" r="2" style="fill:#000" class="net_2"/>
  <line x1="796" x2="841" y1="128" y2="128" class="net_2"/>
  <line x1="776" x2="786" y1="348.5" y2="348.5" class="net_70,71,72,73"/>
  <line x1="786" x2="786" y1="348.5" y2="408.5" class="net_70,71,72,73"/>
  <line x1="786" x2="841" y1="408.5" y2="408.5" class="net_70,71,72,73"/>
  <line x1="228" x2="238" y1="103" y2="103" class="net_20,21,22,23,24,25,26,27"/>
  <line x1="238" x2="238" y1="103" y2="158" class="net_20,21,22,23,24,25,26,27"/>
  <line x1="238" x2="62" y1="158" y2="158" class="net_20,21,22,23,24,25,26,27"/>
  <line x1="62" x2="62" y1="158" y2="135.5" class="net_20,21,22,23,24,25,26,27"/>
  <circle cx="238" cy="103" r="2" style="fill:#000" class="net_20,21,22,23,24,25,26,27"/>
  <line x1="62" x2="102" y1="135.5" y2="135.5" class="net_20,21,22,23,24,25,26,27"/>
  <line x1="228" x2="279.42857142857144" y1="103" y2="103" class="net_20,21,22,23,24,25,26,27"/>
  <line x1="776" x2="841" y1="148" y2="148" class="net_74,75,76,77"/>
  <line x1="716" x2="756" y1="158" y2="158" class="net_66,67,68,69"/>
  <line x1="283.92857142857144" x2="283.92857142857144" y1="92.5" y2="70.5" class="net_26"/>
  <line x1="283.92857142857144" x2="746" y1="70.5" y2="70.5" class="net_26"/>
  <line x1="746" x2="746" y1="70.5" y2="318.5" class="net_26"/>
  <line x1="746" x2="766" y1="318.5" y2="318.5" class="net_26"/>
  <line x1="766" x2="766" y1="318.5" y2="163" class="net_26"/>
  <line x1="601" x2="636" y1="160.5" y2="160.5" class="net_58,59,60,61"/>
  <line x1="284.42857142857144" x2="303" y1="113" y2="113" class="net_24"/>
  <line x1="303" x2="303" y1="113" y2="97.5" class="net_24"/>
  <line x1="303" x2="621" y1="97.5" y2="97.5" class="net_24"/>
  <line x1="621" x2="621" y1="97.5" y2="199" class="net_24"/>
  <line x1="621" x2="646" y1="199" y2="199" class="net_24"/>
  <line x1="646" x2="646" y1="199" y2="165.5" class="net_24"/>
  <line x1="486" x2="521" y1="163" y2="163" class="net_50,51,52,53"/>
  <line x1="284.42857142857144" x2="313" y1="133" y2="133" class="net_22"/>
  <line x1="313" x2="313" y1="133" y2="108.5" class="net_22"/>
  <line x1="313" x2="506" y1="108.5" y2="108.5" class="net_22"/>
  <line x1="506" x2="506" y1="108.5" y2="183" class="net_22"/>
  <line x1="506" x2="531" y1="183" y2="183" class="net_22"/>
  <line x1="531" x2="531" y1="183" y2="168" class="net_22"/>
  <line x1="293" x2="313" y1="316" y2="316" class="net_94"/>
  <line x1="313" x2="313" y1="316" y2="214" class="net_94"/>
  <circle cx="313" cy="316" r="2" style="fill:#000" class="net_94"/>
  <line x1="313" x2="346.3333333333333" y1="214" y2="214" class="net_94"/>
  <line x1="293" x2="346.3333333333333" y1="316" y2="316" class="net_94"/>
  <line x1="284.42857142857144" x2="333" y1="153" y2="153" class="net_20"/>
  <line x1="333" x2="333" y1="153" y2="254" class="net_20"/>
  <line x1="333" x2="356.3333333333333" y1="254" y2="254" class="net_20"/>
  <line x1="356.3333333333333" x2="356.3333333333333" y1="254" y2="239" class="net_20"/>
  <line x1="716" x2="756" y1="358.5" y2="358.5" class="net_45,46,47,48"/>
  <line x1="284.42857142857144" x2="323" y1="173" y2="173" class="net_27"/>
  <line x1="323" x2="323" y1="173" y2="119.5" class="net_27"/>
  <line x1="323" x2="726" y1="119.5" y2="119.5" class="net_27"/>
  <line x1="726" x2="726" y1="119.5" y2="378.5" class="net_27"/>
  <line x1="726" x2="766" y1="378.5" y2="378.5" class="net_27"/>
  <line x1="766" x2="766" y1="378.5" y2="363.5" class="net_27"/>
  <line x1="601" x2="636" y1="239" y2="239" class="net_37,38,39,40"/>
  <line x1="284.42857142857144" x2="611" y1="193" y2="193" class="net_25"/>
  <line x1="611" x2="611" y1="193" y2="356" class="net_25"/>
  <line x1="611" x2="646" y1="356" y2="356" class="net_25"/>
  <line x1="646" x2="646" y1="356" y2="244" class="net_25"/>
  <line x1="486" x2="521" y1="241.5" y2="241.5" class="net_29,30,31,32"/>
  <line x1="284.42857142857144" x2="303" y1="213" y2="213" class="net_23"/>
  <line x1="303" x2="303" y1="213" y2="264" class="net_23"/>
  <line x1="303" x2="531" y1="264" y2="264" class="net_23"/>
  <line x1="531" x2="531" y1="264" y2="246.5" class="net_23"/>
  <line x1="283.92857142857144" x2="283.92857142857144" y1="233.5" y2="286" class="net_21"/>
  <line x1="283.92857142857144" x2="303" y1="286" y2="286" class="net_21"/>
  <line x1="303" x2="303" y1="286" y2="356" class="net_21"/>
  <line x1="303" x2="356.3333333333333" y1="356" y2="356" class="net_21"/>
  <line x1="356.3333333333333" x2="356.3333333333333" y1="356" y2="341" class="net_21"/>
  <line x1="872" x2="942" y1="108" y2="108" class="net_12,13,14,15"/>
  <line x1="872" x2="942" y1="368.5" y2="368.5" class="net_16,17,18,19"/>
  <line x1="366.3333333333333" x2="393" y1="326" y2="326" class="net_28"/>
  <line x1="393" x2="393" y1="326" y2="224" class="net_28"/>
  <line x1="393" x2="420" y1="224" y2="224" class="net_28"/>
  <line x1="373" x2="403" y1="165.5" y2="165.5" class="net_79,80,81"/>
  <line x1="403" x2="403" y1="165.5" y2="244" class="net_79,80,81"/>
  <circle cx="403" cy="165.5" r="2" style="fill:#000" class="net_79,80,81"/>
  <line x1="403" x2="420" y1="244" y2="244" class="net_79,80,81"/>
  <line x1="373" x2="420" y1="165.5" y2="165.5" class="net_79,80,81"/>
  <line x1="366.3333333333333" x2="383" y1="224" y2="224" class="net_49"/>
  <line x1="383" x2="383" y1="224" y2="145.5" class="net_49"/>
  <line x1="383" x2="420" y1="145.5" y2="145.5" class="net_49"/>
</svg>
