<svg xmlns="http://www.w3.org/2000/svg" xmlns:xlink="http://www.w3.org/1999/xlink" xmlns:s="https://github.com/nturley/netlistsvg" width="947" height="1112">
  <style>svg {
    stroke:#000;
    fill:none;
  }
  text {
    fill:#000;
    stroke:none;
    font-size:10px;
    font-weight: bold;
    font-family: "Courier New", monospace;
  }
  .nodelabel {
    text-anchor: middle;
  }
  .inputPortLabel {
    text-anchor: end;
  }
  .splitjoinBody {
    fill:#000;
  }</style>
  <g s:type="add" transform="translate(685.3333333333334,88)" s:width="25" s:height="25" id="cell_$add$guarded_unsigned_counter.v:36$11">
    <s:alias val="$add"/>
    <circle r="12.5" cx="12.5" cy="12.5" class="cell_$add$guarded_unsigned_counter.v:36$11"/>
    <line x1="7.5" x2="17.5" y1="12.5" y2="12.5" class="cell_$add$guarded_unsigned_counter.v:36$11"/>
    <line x1="12.5" x2="12.5" y1="7.5" y2="17.5" class="cell_$add$guarded_unsigned_counter.v:36$11"/>
    <g s:x="3" s:y="5" s:pid="A"/>
    <g s:x="3" s:y="20" s:pid="B"/>
    <g s:x="25" s:y="12.5" s:pid="Y"/>
  </g>
  <g s:type="add" transform="translate(442,253.5)" s:width="25" s:height="25" id="cell_$add$guarded_unsigned_counter.v:45$14">
    <s:alias val="$add"/>
    <circle r="12.5" cx="12.5" cy="12.5" class="cell_$add$guarded_unsigned_counter.v:45$14"/>
    <line x1="7.5" x2="17.5" y1="12.5" y2="12.5" class="cell_$add$guarded_unsigned_counter.v:45$14"/>
    <line x1="12.5" x2="12.5" y1="7.5" y2="17.5" class="cell_$add$guarded_unsigned_counter.v:45$14"/>
    <g s:x="3" s:y="5" s:pid="A"/>
    <g s:x="3" s:y="20" s:pid="B"/>
    <g s:x="25" s:y="12.5" s:pid="Y"/>
  </g>
  <g s:type="add" transform="translate(622,319.5)" s:width="25" s:height="25" id="cell_$add$guarded_unsigned_counter.v:45$15">
    <s:alias val="$add"/>
    <circle r="12.5" cx="12.5" cy="12.5" class="cell_$add$guarded_unsigned_counter.v:45$15"/>
    <line x1="7.5" x2="17.5" y1="12.5" y2="12.5" class="cell_$add$guarded_unsigned_counter.v:45$15"/>
    <line x1="12.5" x2="12.5" y1="7.5" y2="17.5" class="cell_$add$guarded_unsigned_counter.v:45$15"/>
    <g s:x="3" s:y="5" s:pid="A"/>
    <g s:x="3" s:y="20" s:pid="B"/>
    <g s:x="25" s:y="12.5" s:pid="Y"/>
  </g>
  <g s:type="add" transform="translate(803.6666666666666,395.5)" s:width="25" s:height="25" id="cell_$add$guarded_unsigned_counter.v:45$16">
    <s:alias val="$add"/>
    <circle r="12.5" cx="12.5" cy="12.5" class="cell_$add$guarded_unsigned_counter.v:45$16"/>
    <line x1="7.5" x2="17.5" y1="12.5" y2="12.5" class="cell_$add$guarded_unsigned_counter.v:45$16"/>
    <line x1="12.5" x2="12.5" y1="7.5" y2="17.5" class="cell_$add$guarded_unsigned_counter.v:45$16"/>
    <g s:x="3" s:y="5" s:pid="A"/>
    <g s:x="3" s:y="20" s:pid="B"/>
    <g s:x="25" s:y="12.5" s:pid="Y"/>
  </g>
  <g s:type="add" transform="translate(172,211)" s:width="25" s:height="25" id="cell_$add$guarded_unsigned_counter.v:45$17">
    <s:alias val="$add"/>
    <circle r="12.5" cx="12.5" cy="12.5" class="cell_$add$guarded_unsigned_counter.v:45$17"/>
    <line x1="7.5" x2="17.5" y1="12.5" y2="12.5" class="cell_$add$guarded_unsigned_counter.v:45$17"/>
    <line x1="12.5" x2="12.5" y1="7.5" y2="17.5" class="cell_$add$guarded_unsigned_counter.v:45$17"/>
    <g s:x="3" s:y="5" s:pid="A"/>
    <g s:x="3" s:y="20" s:pid="B"/>
    <g s:x="25" s:y="12.5" s:pid="Y"/>
  </g>
  <g s:type="add" transform="translate(622,955)" s:width="25" s:height="25" id="cell_$add$guarded_unsigned_counter.v:58$20">
    <s:alias val="$add"/>
    <circle r="12.5" cx="12.5" cy="12.5" class="cell_$add$guarded_unsigned_counter.v:58$20"/>
    <line x1="7.5" x2="17.5" y1="12.5" y2="12.5" class="cell_$add$guarded_unsigned_counter.v:58$20"/>
    <line x1="12.5" x2="12.5" y1="7.5" y2="17.5" class="cell_$add$guarded_unsigned_counter.v:58$20"/>
    <g s:x="3" s:y="5" s:pid="A"/>
    <g s:x="3" s:y="20" s:pid="B"/>
    <g s:x="25" s:y="12.5" s:pid="Y"/>
  </g>
  <g s:type="add" transform="translate(803.6666666666666,1053)" s:width="25" s:height="25" id="cell_$add$guarded_unsigned_counter.v:58$21">
    <s:alias val="$add"/>
    <circle r="12.5" cx="12.5" cy="12.5" class="cell_$add$guarded_unsigned_counter.v:58$21"/>
    <line x1="7.5" x2="17.5" y1="12.5" y2="12.5" class="cell_$add$guarded_unsigned_counter.v:58$21"/>
    <line x1="12.5" x2="12.5" y1="7.5" y2="17.5" class="cell_$add$guarded_unsigned_counter.v:58$21"/>
    <g s:x="3" s:y="5" s:pid="A"/>
    <g s:x="3" s:y="20" s:pid="B"/>
    <g s:x="25" s:y="12.5" s:pid="Y"/>
  </g>
  <g s:type="add" transform="translate(172,368)" s:width="25" s:height="25" id="cell_$add$guarded_unsigned_counter.v:58$22">
    <s:alias val="$add"/>
    <circle r="12.5" cx="12.5" cy="12.5" class="cell_$add$guarded_unsigned_counter.v:58$22"/>
    <line x1="7.5" x2="17.5" y1="12.5" y2="12.5" class="cell_$add$guarded_unsigned_counter.v:58$22"/>
    <line x1="12.5" x2="12.5" y1="7.5" y2="17.5" class="cell_$add$guarded_unsigned_counter.v:58$22"/>
    <g s:x="3" s:y="5" s:pid="A"/>
    <g s:x="3" s:y="20" s:pid="B"/>
    <g s:x="25" s:y="12.5" s:pid="Y"/>
  </g>
  <g s:type="add" transform="translate(378.6666666666667,587.5)" s:width="25" s:height="25" id="cell_$add$guarded_unsigned_counter.v:58$23">
    <s:alias val="$add"/>
    <circle r="12.5" cx="12.5" cy="12.5" class="cell_$add$guarded_unsigned_counter.v:58$23"/>
    <line x1="7.5" x2="17.5" y1="12.5" y2="12.5" class="cell_$add$guarded_unsigned_counter.v:58$23"/>
    <line x1="12.5" x2="12.5" y1="7.5" y2="17.5" class="cell_$add$guarded_unsigned_counter.v:58$23"/>
    <g s:x="3" s:y="5" s:pid="A"/>
    <g s:x="3" s:y="20" s:pid="B"/>
    <g s:x="25" s:y="12.5" s:pid="Y"/>
  </g>
  <g s:type="dff" transform="translate(802,971)" s:width="30" s:height="40" id="cell_$procdff$100">
    <s:alias val="$dff"/>
    <s:alias val="$_DFF_"/>
    <s:alias val="$_DFF_P_"/>
    <rect width="30" height="40" x="0" y="0" class="cell_$procdff$100"/>
    <path d="M0,35 L5,30 L0,25" class="cell_$procdff$100"/>
    <g s:x="30" s:y="10" s:pid="Q"/>
    <g s:x="0" s:y="30" s:pid="CLK"/>
    <g s:x="0" s:y="30" s:pid="C"/>
    <g s:x="0" s:y="10" s:pid="D"/>
  </g>
  <g s:type="dff" transform="translate(802,110.5)" s:width="30" s:height="40" id="cell_$procdff$101">
    <s:alias val="$dff"/>
    <s:alias val="$_DFF_"/>
    <s:alias val="$_DFF_P_"/>
    <rect width="30" height="40" x="0" y="0" class="cell_$procdff$101"/>
    <path d="M0,35 L5,30 L0,25" class="cell_$procdff$101"/>
    <g s:x="30" s:y="10" s:pid="Q"/>
    <g s:x="0" s:y="30" s:pid="CLK"/>
    <g s:x="0" s:y="30" s:pid="C"/>
    <g s:x="0" s:y="10" s:pid="D"/>
  </g>
  <g s:type="dff" transform="translate(557,915)" s:width="30" s:height="40" id="cell_$procdff$96">
    <s:alias val="$dff"/>
    <s:alias val="$_DFF_"/>
    <s:alias val="$_DFF_P_"/>
    <rect width="30" height="40" x="0" y="0" class="cell_$procdff$96"/>
    <path d="M0,35 L5,30 L0,25" class="cell_$procdff$96"/>
    <g s:x="30" s:y="10" s:pid="Q"/>
    <g s:x="0" s:y="30" s:pid="CLK"/>
    <g s:x="0" s:y="30" s:pid="C"/>
    <g s:x="0" s:y="10" s:pid="D"/>
  </g>
  <g s:type="dff" transform="translate(802,896)" s:width="30" s:height="40" id="cell_$procdff$97">
    <s:alias val="$dff"/>
    <s:alias val="$_DFF_"/>
    <s:alias val="$_DFF_P_"/>
    <rect width="30" height="40" x="0" y="0" class="cell_$procdff$97"/>
    <path d="M0,35 L5,30 L0,25" class="cell_$procdff$97"/>
    <g s:x="30" s:y="10" s:pid="Q"/>
    <g s:x="0" s:y="30" s:pid="CLK"/>
    <g s:x="0" s:y="30" s:pid="C"/>
    <g s:x="0" s:y="10" s:pid="D"/>
  </g>
  <g s:type="dff" transform="translate(377,213.5)" s:width="30" s:height="40" id="cell_$procdff$99">
    <s:alias val="$dff"/>
    <s:alias val="$_DFF_"/>
    <s:alias val="$_DFF_P_"/>
    <rect width="30" height="40" x="0" y="0" class="cell_$procdff$99"/>
    <path d="M0,35 L5,30 L0,25" class="cell_$procdff$99"/>
    <g s:x="30" s:y="10" s:pid="Q"/>
    <g s:x="0" s:y="30" s:pid="CLK"/>
    <g s:x="0" s:y="30" s:pid="C"/>
    <g s:x="0" s:y="10" s:pid="D"/>
  </g>
  <g s:type="mux" transform="translate(443.6666666666667,570)" s:width="20" s:height="40" id="cell_$procmux$28">
    <s:alias val="$pmux"/>
    <s:alias val="$mux"/>
    <s:alias val="$_MUX_"/>
    <path d="M0,0 L20,10 L20,30 L0,40 Z" class="cell_$procmux$28"/>
    <g s:x="0" s:y="10" s:pid="A"/>
    <g s:x="0" s:y="30" s:pid="B"/>
    <g s:x="10" s:y="35" s:pid="S"/>
    <g s:x="20" s:y="20" s:pid="Y"/>
  </g>
  <g s:type="mux" transform="translate(237,350.5)" s:width="20" s:height="40" id="cell_$procmux$34">
    <s:alias val="$pmux"/>
    <s:alias val="$mux"/>
    <s:alias val="$_MUX_"/>
    <path d="M0,0 L20,10 L20,30 L0,40 Z" class="cell_$procmux$34"/>
    <g s:x="0" s:y="10" s:pid="A"/>
    <g s:x="0" s:y="30" s:pid="B"/>
    <g s:x="10" s:y="35" s:pid="S"/>
    <g s:x="20" s:y="20" s:pid="Y"/>
  </g>
  <g s:type="mux" transform="translate(310.3333333333333,546.5)" s:width="20" s:height="40" id="cell_$procmux$36">
    <s:alias val="$pmux"/>
    <s:alias val="$mux"/>
    <s:alias val="$_MUX_"/>
    <path d="M0,0 L20,10 L20,30 L0,40 Z" class="cell_$procmux$36"/>
    <g s:x="0" s:y="10" s:pid="A"/>
    <g s:x="0" s:y="30" s:pid="B"/>
    <g s:x="10" s:y="35" s:pid="S"/>
    <g s:x="20" s:y="20" s:pid="Y"/>
  </g>
  <g s:type="mux" transform="translate(867,1035.5)" s:width="20" s:height="40" id="cell_$procmux$40">
    <s:alias val="$pmux"/>
    <s:alias val="$mux"/>
    <s:alias val="$_MUX_"/>
    <path d="M0,0 L20,10 L20,30 L0,40 Z" class="cell_$procmux$40"/>
    <g s:x="0" s:y="10" s:pid="A"/>
    <g s:x="0" s:y="30" s:pid="B"/>
    <g s:x="10" s:y="35" s:pid="S"/>
    <g s:x="20" s:y="20" s:pid="Y"/>
  </g>
  <g s:type="mux" transform="translate(98.66666666666667,516.5)" s:width="20" s:height="40" id="cell_$procmux$42">
    <s:alias val="$pmux"/>
    <s:alias val="$mux"/>
    <s:alias val="$_MUX_"/>
    <path d="M0,0 L20,10 L20,30 L0,40 Z" class="cell_$procmux$42"/>
    <g s:x="0" s:y="10" s:pid="A"/>
    <g s:x="0" s:y="30" s:pid="B"/>
    <g s:x="10" s:y="35" s:pid="S"/>
    <g s:x="20" s:y="20" s:pid="Y"/>
  </g>
  <g s:type="mux" transform="translate(685.3333333333334,937.5)" s:width="20" s:height="40" id="cell_$procmux$46">
    <s:alias val="$pmux"/>
    <s:alias val="$mux"/>
    <s:alias val="$_MUX_"/>
    <path d="M0,0 L20,10 L20,30 L0,40 Z" class="cell_$procmux$46"/>
    <g s:x="0" s:y="10" s:pid="A"/>
    <g s:x="0" s:y="30" s:pid="B"/>
    <g s:x="10" s:y="35" s:pid="S"/>
    <g s:x="20" s:y="20" s:pid="Y"/>
  </g>
  <g s:type="mux" transform="translate(747,1012)" s:width="20" s:height="40" id="cell_$procmux$48">
    <s:alias val="$pmux"/>
    <s:alias val="$mux"/>
    <s:alias val="$_MUX_"/>
    <path d="M0,0 L20,10 L20,30 L0,40 Z" class="cell_$procmux$48"/>
    <g s:x="0" s:y="10" s:pid="A"/>
    <g s:x="0" s:y="30" s:pid="B"/>
    <g s:x="10" s:y="35" s:pid="S"/>
    <g s:x="20" s:y="20" s:pid="Y"/>
  </g>
  <g s:type="mux" transform="translate(747,445.5)" s:width="20" s:height="40" id="cell_$procmux$51">
    <s:alias val="$pmux"/>
    <s:alias val="$mux"/>
    <s:alias val="$_MUX_"/>
    <path d="M0,0 L20,10 L20,30 L0,40 Z" class="cell_$procmux$51"/>
    <g s:x="0" s:y="10" s:pid="A"/>
    <g s:x="0" s:y="30" s:pid="B"/>
    <g s:x="10" s:y="35" s:pid="S"/>
    <g s:x="20" s:y="20" s:pid="Y"/>
  </g>
  <g s:type="mux" transform="translate(502,905)" s:width="20" s:height="40" id="cell_$procmux$57">
    <s:alias val="$pmux"/>
    <s:alias val="$mux"/>
    <s:alias val="$_MUX_"/>
    <path d="M0,0 L20,10 L20,30 L0,40 Z" class="cell_$procmux$57"/>
    <g s:x="0" s:y="10" s:pid="A"/>
    <g s:x="0" s:y="30" s:pid="B"/>
    <g s:x="10" s:y="35" s:pid="S"/>
    <g s:x="20" s:y="20" s:pid="Y"/>
  </g>
  <g s:type="mux" transform="translate(237,193.5)" s:width="20" s:height="40" id="cell_$procmux$61">
    <s:alias val="$pmux"/>
    <s:alias val="$mux"/>
    <s:alias val="$_MUX_"/>
    <path d="M0,0 L20,10 L20,30 L0,40 Z" class="cell_$procmux$61"/>
    <g s:x="0" s:y="10" s:pid="A"/>
    <g s:x="0" s:y="30" s:pid="B"/>
    <g s:x="10" s:y="35" s:pid="S"/>
    <g s:x="20" s:y="20" s:pid="Y"/>
  </g>
  <g s:type="mux" transform="translate(867,378)" s:width="20" s:height="40" id="cell_$procmux$67">
    <s:alias val="$pmux"/>
    <s:alias val="$mux"/>
    <s:alias val="$_MUX_"/>
    <path d="M0,0 L20,10 L20,30 L0,40 Z" class="cell_$procmux$67"/>
    <g s:x="0" s:y="10" s:pid="A"/>
    <g s:x="0" s:y="30" s:pid="B"/>
    <g s:x="10" s:y="35" s:pid="S"/>
    <g s:x="20" s:y="20" s:pid="Y"/>
  </g>
  <g s:type="mux" transform="translate(98.66666666666667,421.5)" s:width="20" s:height="40" id="cell_$procmux$69">
    <s:alias val="$pmux"/>
    <s:alias val="$mux"/>
    <s:alias val="$_MUX_"/>
    <path d="M0,0 L20,10 L20,30 L0,40 Z" class="cell_$procmux$69"/>
    <g s:x="0" s:y="10" s:pid="A"/>
    <g s:x="0" s:y="30" s:pid="B"/>
    <g s:x="10" s:y="35" s:pid="S"/>
    <g s:x="20" s:y="20" s:pid="Y"/>
  </g>
  <g s:type="mux" transform="translate(685.3333333333334,302)" s:width="20" s:height="40" id="cell_$procmux$73">
    <s:alias val="$pmux"/>
    <s:alias val="$mux"/>
    <s:alias val="$_MUX_"/>
    <path d="M0,0 L20,10 L20,30 L0,40 Z" class="cell_$procmux$73"/>
    <g s:x="0" s:y="10" s:pid="A"/>
    <g s:x="0" s:y="30" s:pid="B"/>
    <g s:x="10" s:y="35" s:pid="S"/>
    <g s:x="20" s:y="20" s:pid="Y"/>
  </g>
  <g s:type="mux" transform="translate(747,380.5)" s:width="20" s:height="40" id="cell_$procmux$75">
    <s:alias val="$pmux"/>
    <s:alias val="$mux"/>
    <s:alias val="$_MUX_"/>
    <path d="M0,0 L20,10 L20,30 L0,40 Z" class="cell_$procmux$75"/>
    <g s:x="0" s:y="10" s:pid="A"/>
    <g s:x="0" s:y="30" s:pid="B"/>
    <g s:x="10" s:y="35" s:pid="S"/>
    <g s:x="20" s:y="20" s:pid="Y"/>
  </g>
  <g s:type="mux" transform="translate(502,236)" s:width="20" s:height="40" id="cell_$procmux$79">
    <s:alias val="$pmux"/>
    <s:alias val="$mux"/>
    <s:alias val="$_MUX_"/>
    <path d="M0,0 L20,10 L20,30 L0,40 Z" class="cell_$procmux$79"/>
    <g s:x="0" s:y="10" s:pid="A"/>
    <g s:x="0" s:y="30" s:pid="B"/>
    <g s:x="10" s:y="35" s:pid="S"/>
    <g s:x="20" s:y="20" s:pid="Y"/>
  </g>
  <g s:type="mux" transform="translate(560.3333333333334,258.5)" s:width="20" s:height="40" id="cell_$procmux$81">
    <s:alias val="$pmux"/>
    <s:alias val="$mux"/>
    <s:alias val="$_MUX_"/>
    <path d="M0,0 L20,10 L20,30 L0,40 Z" class="cell_$procmux$81"/>
    <g s:x="0" s:y="10" s:pid="A"/>
    <g s:x="0" s:y="30" s:pid="B"/>
    <g s:x="10" s:y="35" s:pid="S"/>
    <g s:x="20" s:y="20" s:pid="Y"/>
  </g>
  <g s:type="mux" transform="translate(747,801)" s:width="20" s:height="40" id="cell_$procmux$84">
    <s:alias val="$pmux"/>
    <s:alias val="$mux"/>
    <s:alias val="$_MUX_"/>
    <path d="M0,0 L20,10 L20,30 L0,40 Z" class="cell_$procmux$84"/>
    <g s:x="0" s:y="10" s:pid="A"/>
    <g s:x="0" s:y="30" s:pid="B"/>
    <g s:x="10" s:y="35" s:pid="S"/>
    <g s:x="20" s:y="20" s:pid="Y"/>
  </g>
  <g s:type="mux" transform="translate(313.6666666666667,203.5)" s:width="20" s:height="40" id="cell_$procmux$90">
    <s:alias val="$pmux"/>
    <s:alias val="$mux"/>
    <s:alias val="$_MUX_"/>
    <path d="M0,0 L20,10 L20,30 L0,40 Z" class="cell_$procmux$90"/>
    <g s:x="0" s:y="10" s:pid="A"/>
    <g s:x="0" s:y="30" s:pid="B"/>
    <g s:x="10" s:y="35" s:pid="S"/>
    <g s:x="20" s:y="20" s:pid="Y"/>
  </g>
  <g s:type="mux" transform="translate(747,90.5)" s:width="20" s:height="40" id="cell_$procmux$93">
    <s:alias val="$pmux"/>
    <s:alias val="$mux"/>
    <s:alias val="$_MUX_"/>
    <path d="M0,0 L20,10 L20,30 L0,40 Z" class="cell_$procmux$93"/>
    <g s:x="0" s:y="10" s:pid="A"/>
    <g s:x="0" s:y="30" s:pid="B"/>
    <g s:x="10" s:y="35" s:pid="S"/>
    <g s:x="20" s:y="20" s:pid="Y"/>
  </g>
  <g s:type="inputExt" transform="translate(307,628.5)" s:width="30" s:height="20" id="cell_clk">
    <text x="15" y="-4" class="nodelabel cell_clk" s:attribute="ref">clk</text>
    <s:alias val="$_inputExt_"/>
    <path d="M0,0 L0,20 L15,20 L30,10 L15,0 Z" class="cell_clk"/>
    <g s:x="28" s:y="10" s:pid="Y"/>
  </g>
  <g s:type="inputExt" transform="translate(12,496.5)" s:width="30" s:height="20" id="cell_rstn">
    <text x="15" y="-4" class="nodelabel cell_rstn" s:attribute="ref">rstn</text>
    <s:alias val="$_inputExt_"/>
    <path d="M0,0 L0,20 L15,20 L30,10 L15,0 Z" class="cell_rstn"/>
    <g s:x="28" s:y="10" s:pid="Y"/>
  </g>
  <g s:type="outputExt" transform="translate(867,110.5)" s:width="30" s:height="20" id="cell_out">
    <text x="15" y="-4" class="nodelabel cell_out" s:attribute="ref">out</text>
    <s:alias val="$_outputExt_"/>
    <path d="M30,0 L30,20 L15,20 L0,10 L15,0 Z" class="cell_out"/>
    <g s:x="0" s:y="10" s:pid="A"/>
  </g>
  <g s:type="outputExt" transform="translate(867,896)" s:width="30" s:height="20" id="cell_even_bit">
    <text x="15" y="-4" class="nodelabel cell_even_bit" s:attribute="ref">even_bit</text>
    <s:alias val="$_outputExt_"/>
    <path d="M30,0 L30,20 L15,20 L0,10 L15,0 Z" class="cell_even_bit"/>
    <g s:x="0" s:y="10" s:pid="A"/>
  </g>
  <g s:type="outputExt" transform="translate(867,971)" s:width="30" s:height="20" id="cell_odd_bit">
    <text x="15" y="-4" class="nodelabel cell_odd_bit" s:attribute="ref">odd_bit</text>
    <s:alias val="$_outputExt_"/>
    <path d="M30,0 L30,20 L15,20 L0,10 L15,0 Z" class="cell_odd_bit"/>
    <g s:x="0" s:y="10" s:pid="A"/>
  </g>
  <g s:type="constant" transform="translate(92,329.5)" s:width="30" s:height="20" id="cell_1">
    <text x="15" y="-4" class="nodelabel cell_1" s:attribute="ref">1</text>
    <s:alias val="$_constant_"/>
    <rect width="30" height="20" class="cell_1"/>
    <g s:x="30" s:y="10" s:pid="Y"/>
  </g>
  <g s:type="constant" transform="translate(682,821)" s:width="30" s:height="20" id="cell_0000">
    <text x="15" y="-4" class="nodelabel cell_0000" s:attribute="ref">0x0</text>
    <s:alias val="$_constant_"/>
    <rect width="30" height="20" class="cell_0000"/>
    <g s:x="30" s:y="10" s:pid="Y"/>
  </g>
  <g s:type="constant" transform="translate(682,33)" s:width="30" s:height="20" id="cell_00000000">
    <text x="15" y="-4" class="nodelabel cell_00000000" s:attribute="ref">0x0</text>
    <s:alias val="$_constant_"/>
    <rect width="30" height="20" class="cell_00000000"/>
    <g s:x="30" s:y="10" s:pid="Y"/>
  </g>
  <g s:type="split" transform="translate(185,670.5)" s:width="5" s:height="40" id="cell_$split$,4,5,6,7,8,9,10,11,">
    <rect width="5" height="160" class="splitjoinBody" s:generic="body"/>
    <s:alias val="$_split_"/>
    <g s:x="0" s:y="20" s:pid="in"/>
    <g transform="translate(4,10)" s:x="4" s:y="10" s:pid="out0">
      <text x="5" y="-4">6</text>
    </g>
    <g transform="translate(4,30)" s:x="4" s:y="10" s:pid="out0">
      <text x="5" y="-4">4</text>
    </g>
    <g transform="translate(4,50)" s:x="4" s:y="10" s:pid="out0">
      <text x="5" y="-4">2</text>
    </g>
    <g transform="translate(4,70)" s:x="4" s:y="10" s:pid="out0">
      <text x="5" y="-4">0</text>
    </g>
    <g transform="translate(4,90)" s:x="4" s:y="10" s:pid="out0">
      <text x="5" y="-4">7</text>
    </g>
    <g transform="translate(4,110)" s:x="4" s:y="10" s:pid="out0">
      <text x="5" y="-4">5</text>
    </g>
    <g transform="translate(4,130)" s:x="4" s:y="10" s:pid="out0">
      <text x="5" y="-4">3</text>
    </g>
    <g transform="translate(4,150)" s:x="4" s:y="10" s:pid="out0">
      <text x="5" y="-4">1</text>
    </g>
  </g>
  <line x1="832" x2="842" y1="120.5" y2="120.5" class="net_4,5,6,7,8,9,10,11"/>
  <line x1="842" x2="842" y1="120.5" y2="160.5" class="net_4,5,6,7,8,9,10,11"/>
  <line x1="842" x2="657" y1="160.5" y2="160.5" class="net_4,5,6,7,8,9,10,11"/>
  <line x1="657" x2="657" y1="160.5" y2="93" class="net_4,5,6,7,8,9,10,11"/>
  <line x1="657" x2="688.3333333333334" y1="93" y2="93" class="net_4,5,6,7,8,9,10,11"/>
  <line x1="832" x2="867" y1="120.5" y2="120.5" class="net_4,5,6,7,8,9,10,11"/>
  <line x1="832" x2="842" y1="120.5" y2="120.5" class="net_4,5,6,7,8,9,10,11"/>
  <line x1="842" x2="842" y1="120.5" y2="12" class="net_4,5,6,7,8,9,10,11"/>
  <line x1="842" x2="132" y1="12" y2="12" class="net_4,5,6,7,8,9,10,11"/>
  <line x1="132" x2="132" y1="12" y2="691" class="net_4,5,6,7,8,9,10,11"/>
  <circle cx="842" cy="120.5" r="2" style="fill:#000" class="net_4,5,6,7,8,9,10,11"/>
  <line x1="132" x2="185" y1="691" y2="691" class="net_4,5,6,7,8,9,10,11"/>
  <line x1="122" x2="162" y1="339.5" y2="339.5" class="net_148"/>
  <line x1="162" x2="162" y1="339.5" y2="171.5" class="net_148"/>
  <line x1="162" x2="347" y1="171.5" y2="171.5" class="net_148"/>
  <line x1="347" x2="347" y1="171.5" y2="108" class="net_148"/>
  <circle cx="162" cy="339.5" r="2" style="fill:#000" class="net_148"/>
  <circle cx="347" cy="171.5" r="2" style="fill:#000" class="net_148"/>
  <line x1="347" x2="688.3333333333334" y1="108" y2="108" class="net_148"/>
  <line x1="122" x2="162" y1="339.5" y2="339.5" class="net_148"/>
  <line x1="162" x2="162" y1="339.5" y2="273.5" class="net_148"/>
  <circle cx="162" cy="273.5" r="2" style="fill:#000" class="net_148"/>
  <line x1="162" x2="445" y1="273.5" y2="273.5" class="net_148"/>
  <line x1="122" x2="625" y1="339.5" y2="339.5" class="net_148"/>
  <line x1="122" x2="162" y1="339.5" y2="339.5" class="net_148"/>
  <line x1="162" x2="162" y1="339.5" y2="171.5" class="net_148"/>
  <line x1="162" x2="777" y1="171.5" y2="171.5" class="net_148"/>
  <line x1="777" x2="777" y1="171.5" y2="415.5" class="net_148"/>
  <line x1="777" x2="806.6666666666666" y1="415.5" y2="415.5" class="net_148"/>
  <line x1="122" x2="162" y1="339.5" y2="339.5" class="net_148"/>
  <line x1="162" x2="162" y1="339.5" y2="231" class="net_148"/>
  <circle cx="162" cy="231" r="2" style="fill:#000" class="net_148"/>
  <line x1="162" x2="175" y1="231" y2="231" class="net_148"/>
  <line x1="122" x2="162" y1="339.5" y2="339.5" class="net_148"/>
  <line x1="162" x2="162" y1="339.5" y2="975" class="net_148"/>
  <circle cx="162" cy="975" r="2" style="fill:#000" class="net_148"/>
  <line x1="162" x2="625" y1="975" y2="975" class="net_148"/>
  <line x1="122" x2="162" y1="339.5" y2="339.5" class="net_148"/>
  <line x1="162" x2="162" y1="339.5" y2="1073" class="net_148"/>
  <line x1="162" x2="806.6666666666666" y1="1073" y2="1073" class="net_148"/>
  <line x1="122" x2="162" y1="339.5" y2="339.5" class="net_148"/>
  <line x1="162" x2="162" y1="339.5" y2="388" class="net_148"/>
  <circle cx="162" cy="388" r="2" style="fill:#000" class="net_148"/>
  <line x1="162" x2="175" y1="388" y2="388" class="net_148"/>
  <line x1="122" x2="162" y1="339.5" y2="339.5" class="net_148"/>
  <line x1="162" x2="162" y1="339.5" y2="607.5" class="net_148"/>
  <circle cx="162" cy="607.5" r="2" style="fill:#000" class="net_148"/>
  <line x1="162" x2="381.6666666666667" y1="607.5" y2="607.5" class="net_148"/>
  <line x1="407" x2="417" y1="223.5" y2="223.5" class="net_28,29,30,31"/>
  <line x1="417" x2="417" y1="223.5" y2="258.5" class="net_28,29,30,31"/>
  <circle cx="417" cy="223.5" r="2" style="fill:#000" class="net_28,29,30,31"/>
  <circle cx="417" cy="258.5" r="2" style="fill:#000" class="net_28,29,30,31"/>
  <line x1="417" x2="445" y1="258.5" y2="258.5" class="net_28,29,30,31"/>
  <line x1="407" x2="477" y1="223.5" y2="223.5" class="net_28,29,30,31"/>
  <line x1="477" x2="477" y1="223.5" y2="246" class="net_28,29,30,31"/>
  <line x1="477" x2="502" y1="246" y2="246" class="net_28,29,30,31"/>
  <line x1="407" x2="417" y1="223.5" y2="223.5" class="net_28,29,30,31"/>
  <line x1="417" x2="417" y1="223.5" y2="263.5" class="net_28,29,30,31"/>
  <line x1="417" x2="287" y1="263.5" y2="263.5" class="net_28,29,30,31"/>
  <line x1="287" x2="287" y1="263.5" y2="233.5" class="net_28,29,30,31"/>
  <line x1="287" x2="313.6666666666667" y1="233.5" y2="233.5" class="net_28,29,30,31"/>
  <line x1="580.3333333333334" x2="597" y1="278.5" y2="278.5" class="net_36,37,38,39"/>
  <line x1="597" x2="597" y1="278.5" y2="324.5" class="net_36,37,38,39"/>
  <circle cx="597" cy="278.5" r="2" style="fill:#000" class="net_36,37,38,39"/>
  <line x1="597" x2="625" y1="324.5" y2="324.5" class="net_36,37,38,39"/>
  <line x1="580.3333333333334" x2="657" y1="278.5" y2="278.5" class="net_36,37,38,39"/>
  <line x1="657" x2="657" y1="278.5" y2="312" class="net_36,37,38,39"/>
  <line x1="657" x2="685.3333333333334" y1="312" y2="312" class="net_36,37,38,39"/>
  <line x1="767" x2="806.6666666666666" y1="400.5" y2="400.5" class="net_44,45,46,47"/>
  <line x1="767" x2="787" y1="400.5" y2="400.5" class="net_44,45,46,47"/>
  <line x1="787" x2="787" y1="400.5" y2="384.5" class="net_44,45,46,47"/>
  <line x1="787" x2="842" y1="384.5" y2="384.5" class="net_44,45,46,47"/>
  <line x1="842" x2="842" y1="384.5" y2="388" class="net_44,45,46,47"/>
  <circle cx="787" cy="400.5" r="2" style="fill:#000" class="net_44,45,46,47"/>
  <line x1="842" x2="867" y1="388" y2="388" class="net_44,45,46,47"/>
  <line x1="118.66666666666667" x2="142" y1="441.5" y2="441.5" class="net_52,53,54,55"/>
  <line x1="142" x2="142" y1="441.5" y2="216" class="net_52,53,54,55"/>
  <circle cx="142" cy="216" r="2" style="fill:#000" class="net_52,53,54,55"/>
  <line x1="142" x2="175" y1="216" y2="216" class="net_52,53,54,55"/>
  <line x1="118.66666666666667" x2="142" y1="441.5" y2="441.5" class="net_52,53,54,55"/>
  <line x1="142" x2="142" y1="441.5" y2="200" class="net_52,53,54,55"/>
  <line x1="142" x2="207" y1="200" y2="200" class="net_52,53,54,55"/>
  <line x1="207" x2="207" y1="200" y2="203.5" class="net_52,53,54,55"/>
  <line x1="207" x2="237" y1="203.5" y2="203.5" class="net_52,53,54,55"/>
  <line x1="587" x2="597" y1="925" y2="925" class="net_60,61,62,63"/>
  <line x1="597" x2="597" y1="925" y2="960" class="net_60,61,62,63"/>
  <circle cx="597" cy="925" r="2" style="fill:#000" class="net_60,61,62,63"/>
  <circle cx="597" cy="960" r="2" style="fill:#000" class="net_60,61,62,63"/>
  <line x1="597" x2="625" y1="960" y2="960" class="net_60,61,62,63"/>
  <line x1="587" x2="657" y1="925" y2="925" class="net_60,61,62,63"/>
  <line x1="657" x2="657" y1="925" y2="947.5" class="net_60,61,62,63"/>
  <line x1="657" x2="685.3333333333334" y1="947.5" y2="947.5" class="net_60,61,62,63"/>
  <line x1="587" x2="597" y1="925" y2="925" class="net_60,61,62,63"/>
  <line x1="597" x2="597" y1="925" y2="965" class="net_60,61,62,63"/>
  <line x1="597" x2="487" y1="965" y2="965" class="net_60,61,62,63"/>
  <line x1="487" x2="487" y1="965" y2="935" class="net_60,61,62,63"/>
  <line x1="487" x2="502" y1="935" y2="935" class="net_60,61,62,63"/>
  <line x1="767" x2="777" y1="1032" y2="1032" class="net_68,69,70,71"/>
  <line x1="777" x2="777" y1="1032" y2="1058" class="net_68,69,70,71"/>
  <circle cx="777" cy="1032" r="2" style="fill:#000" class="net_68,69,70,71"/>
  <line x1="777" x2="806.6666666666666" y1="1058" y2="1058" class="net_68,69,70,71"/>
  <line x1="767" x2="842" y1="1032" y2="1032" class="net_68,69,70,71"/>
  <line x1="842" x2="842" y1="1032" y2="1045.5" class="net_68,69,70,71"/>
  <line x1="842" x2="867" y1="1045.5" y2="1045.5" class="net_68,69,70,71"/>
  <line x1="118.66666666666667" x2="152" y1="536.5" y2="536.5" class="net_76,77,78,79"/>
  <line x1="152" x2="152" y1="536.5" y2="373" class="net_76,77,78,79"/>
  <circle cx="152" cy="373" r="2" style="fill:#000" class="net_76,77,78,79"/>
  <line x1="152" x2="175" y1="373" y2="373" class="net_76,77,78,79"/>
  <line x1="118.66666666666667" x2="152" y1="536.5" y2="536.5" class="net_76,77,78,79"/>
  <line x1="152" x2="152" y1="536.5" y2="357" class="net_76,77,78,79"/>
  <line x1="152" x2="217" y1="357" y2="357" class="net_76,77,78,79"/>
  <line x1="217" x2="217" y1="357" y2="360.5" class="net_76,77,78,79"/>
  <line x1="217" x2="237" y1="360.5" y2="360.5" class="net_76,77,78,79"/>
  <line x1="330.3333333333333" x2="367" y1="566.5" y2="566.5" class="net_84,85,86,87"/>
  <line x1="367" x2="367" y1="566.5" y2="592.5" class="net_84,85,86,87"/>
  <circle cx="367" cy="566.5" r="2" style="fill:#000" class="net_84,85,86,87"/>
  <line x1="367" x2="381.6666666666667" y1="592.5" y2="592.5" class="net_84,85,86,87"/>
  <line x1="330.3333333333333" x2="417" y1="566.5" y2="566.5" class="net_84,85,86,87"/>
  <line x1="417" x2="417" y1="566.5" y2="580" class="net_84,85,86,87"/>
  <line x1="417" x2="443.6666666666667" y1="580" y2="580" class="net_84,85,86,87"/>
  <line x1="335" x2="357" y1="638.5" y2="638.5" class="net_2"/>
  <line x1="357" x2="357" y1="638.5" y2="1001" class="net_2"/>
  <circle cx="357" cy="638.5" r="2" style="fill:#000" class="net_2"/>
  <line x1="357" x2="802" y1="1001" y2="1001" class="net_2"/>
  <line x1="335" x2="357" y1="638.5" y2="638.5" class="net_2"/>
  <line x1="357" x2="357" y1="638.5" y2="140.5" class="net_2"/>
  <line x1="357" x2="802" y1="140.5" y2="140.5" class="net_2"/>
  <line x1="335" x2="357" y1="638.5" y2="638.5" class="net_2"/>
  <line x1="357" x2="357" y1="638.5" y2="884" class="net_2"/>
  <line x1="357" x2="532" y1="884" y2="884" class="net_2"/>
  <line x1="532" x2="532" y1="884" y2="945" class="net_2"/>
  <circle cx="357" cy="884" r="2" style="fill:#000" class="net_2"/>
  <line x1="532" x2="557" y1="945" y2="945" class="net_2"/>
  <line x1="335" x2="357" y1="638.5" y2="638.5" class="net_2"/>
  <line x1="357" x2="357" y1="638.5" y2="1001" class="net_2"/>
  <line x1="357" x2="787" y1="1001" y2="1001" class="net_2"/>
  <line x1="787" x2="787" y1="1001" y2="926" class="net_2"/>
  <circle cx="787" cy="1001" r="2" style="fill:#000" class="net_2"/>
  <line x1="787" x2="802" y1="926" y2="926" class="net_2"/>
  <line x1="335" x2="357" y1="638.5" y2="638.5" class="net_2"/>
  <line x1="357" x2="357" y1="638.5" y2="243.5" class="net_2"/>
  <circle cx="357" cy="243.5" r="2" style="fill:#000" class="net_2"/>
  <line x1="357" x2="377" y1="243.5" y2="243.5" class="net_2"/>
  <line x1="767" x2="777" y1="821" y2="821" class="net_92,93,94,95"/>
  <line x1="777" x2="777" y1="821" y2="981" class="net_92,93,94,95"/>
  <line x1="777" x2="802" y1="981" y2="981" class="net_92,93,94,95"/>
  <line x1="767" x2="777" y1="110.5" y2="110.5" class="net_96,97,98,99,100,101,102,103"/>
  <line x1="777" x2="777" y1="110.5" y2="120.5" class="net_96,97,98,99,100,101,102,103"/>
  <line x1="777" x2="802" y1="120.5" y2="120.5" class="net_96,97,98,99,100,101,102,103"/>
  <line x1="522" x2="557" y1="925" y2="925" class="net_104,105,106,107"/>
  <line x1="767" x2="787" y1="465.5" y2="465.5" class="net_108,109,110,111"/>
  <line x1="787" x2="787" y1="465.5" y2="906" class="net_108,109,110,111"/>
  <line x1="787" x2="802" y1="906" y2="906" class="net_108,109,110,111"/>
  <line x1="333.6666666666667" x2="377" y1="223.5" y2="223.5" class="net_112,113,114,115"/>
  <line x1="403.6666666666667" x2="443.6666666666667" y1="600" y2="600" class="net_88,89,90,91"/>
  <line x1="189.5" x2="189.5" y1="680.5" y2="658.5" class="net_10"/>
  <line x1="189.5" x2="453.6666666666667" y1="658.5" y2="658.5" class="net_10"/>
  <line x1="453.6666666666667" x2="453.6666666666667" y1="658.5" y2="605" class="net_10"/>
  <line x1="197" x2="237" y1="380.5" y2="380.5" class="net_80,81,82,83"/>
  <line x1="190" x2="217" y1="701" y2="701" class="net_8"/>
  <line x1="217" x2="217" y1="701" y2="400.5" class="net_8"/>
  <line x1="217" x2="247" y1="400.5" y2="400.5" class="net_8"/>
  <line x1="247" x2="247" y1="400.5" y2="385.5" class="net_8"/>
  <line x1="257" x2="267" y1="370.5" y2="370.5" class="net_120,121,122,123"/>
  <line x1="267" x2="267" y1="370.5" y2="556.5" class="net_120,121,122,123"/>
  <line x1="267" x2="310.3333333333333" y1="556.5" y2="556.5" class="net_120,121,122,123"/>
  <line x1="82" x2="82" y1="451.5" y2="576.5" class="net_x,x,x,x"/>
  <circle cx="82" cy="451.5" r="2" style="fill:#000" class="net_x,x,x,x"/>
  <circle cx="82" cy="576.5" r="2" style="fill:#000" class="net_x,x,x,x"/>
  <line x1="82" x2="310.3333333333333" y1="576.5" y2="576.5" class="net_x,x,x,x"/>
  <line x1="82" x2="82" y1="451.5" y2="546.5" class="net_x,x,x,x"/>
  <circle cx="82" cy="546.5" r="2" style="fill:#000" class="net_x,x,x,x"/>
  <line x1="82" x2="98.66666666666667" y1="546.5" y2="546.5" class="net_x,x,x,x"/>
  <line x1="82" x2="82" y1="451.5" y2="1042" class="net_x,x,x,x"/>
  <line x1="82" x2="747" y1="1042" y2="1042" class="net_x,x,x,x"/>
  <line x1="82" x2="98.66666666666667" y1="451.5" y2="451.5" class="net_x,x,x,x"/>
  <line x1="82" x2="82" y1="451.5" y2="410.5" class="net_x,x,x,x"/>
  <circle cx="82" cy="410.5" r="2" style="fill:#000" class="net_x,x,x,x"/>
  <line x1="82" x2="747" y1="410.5" y2="410.5" class="net_x,x,x,x"/>
  <line x1="82" x2="82" y1="451.5" y2="288.5" class="net_x,x,x,x"/>
  <line x1="82" x2="560.3333333333334" y1="288.5" y2="288.5" class="net_x,x,x,x"/>
  <line x1="40" x2="72" y1="506.5" y2="506.5" class="net_3"/>
  <line x1="72" x2="72" y1="506.5" y2="851" class="net_3"/>
  <line x1="72" x2="142" y1="851" y2="851" class="net_3"/>
  <line x1="142" x2="142" y1="851" y2="596.5" class="net_3"/>
  <line x1="142" x2="320.3333333333333" y1="596.5" y2="596.5" class="net_3"/>
  <circle cx="72" cy="506.5" r="2" style="fill:#000" class="net_3"/>
  <circle cx="72" cy="851" r="2" style="fill:#000" class="net_3"/>
  <circle cx="142" cy="851" r="2" style="fill:#000" class="net_3"/>
  <line x1="320.3333333333333" x2="320.3333333333333" y1="596.5" y2="581.5" class="net_3"/>
  <line x1="40" x2="72" y1="506.5" y2="506.5" class="net_3"/>
  <line x1="72" x2="72" y1="506.5" y2="566.5" class="net_3"/>
  <line x1="72" x2="108.66666666666667" y1="566.5" y2="566.5" class="net_3"/>
  <circle cx="72" cy="566.5" r="2" style="fill:#000" class="net_3"/>
  <line x1="108.66666666666667" x2="108.66666666666667" y1="566.5" y2="551.5" class="net_3"/>
  <line x1="40" x2="72" y1="506.5" y2="506.5" class="net_3"/>
  <line x1="72" x2="72" y1="506.5" y2="1062" class="net_3"/>
  <line x1="72" x2="757" y1="1062" y2="1062" class="net_3"/>
  <line x1="757" x2="757" y1="1062" y2="1047" class="net_3"/>
  <line x1="40" x2="72" y1="506.5" y2="506.5" class="net_3"/>
  <line x1="72" x2="72" y1="506.5" y2="495.5" class="net_3"/>
  <line x1="72" x2="757" y1="495.5" y2="495.5" class="net_3"/>
  <circle cx="72" cy="495.5" r="2" style="fill:#000" class="net_3"/>
  <line x1="757" x2="757" y1="495.5" y2="480.5" class="net_3"/>
  <line x1="40" x2="72" y1="506.5" y2="506.5" class="net_3"/>
  <line x1="72" x2="72" y1="506.5" y2="955" class="net_3"/>
  <line x1="72" x2="512" y1="955" y2="955" class="net_3"/>
  <circle cx="72" cy="955" r="2" style="fill:#000" class="net_3"/>
  <line x1="512" x2="512" y1="955" y2="940" class="net_3"/>
  <line x1="40" x2="108.66666666666667" y1="506.5" y2="506.5" class="net_3"/>
  <line x1="108.66666666666667" x2="108.66666666666667" y1="506.5" y2="456.5" class="net_3"/>
  <line x1="40" x2="72" y1="506.5" y2="506.5" class="net_3"/>
  <line x1="72" x2="72" y1="506.5" y2="495.5" class="net_3"/>
  <line x1="72" x2="477" y1="495.5" y2="495.5" class="net_3"/>
  <line x1="477" x2="477" y1="495.5" y2="435.5" class="net_3"/>
  <line x1="477" x2="757" y1="435.5" y2="435.5" class="net_3"/>
  <circle cx="477" cy="495.5" r="2" style="fill:#000" class="net_3"/>
  <line x1="757" x2="757" y1="435.5" y2="415.5" class="net_3"/>
  <line x1="40" x2="72" y1="506.5" y2="506.5" class="net_3"/>
  <line x1="72" x2="72" y1="506.5" y2="308.5" class="net_3"/>
  <line x1="72" x2="570.3333333333334" y1="308.5" y2="308.5" class="net_3"/>
  <circle cx="72" cy="308.5" r="2" style="fill:#000" class="net_3"/>
  <line x1="570.3333333333334" x2="570.3333333333334" y1="308.5" y2="293.5" class="net_3"/>
  <line x1="40" x2="72" y1="506.5" y2="506.5" class="net_3"/>
  <line x1="72" x2="72" y1="506.5" y2="851" class="net_3"/>
  <line x1="72" x2="757" y1="851" y2="851" class="net_3"/>
  <line x1="757" x2="757" y1="851" y2="836" class="net_3"/>
  <line x1="40" x2="72" y1="506.5" y2="506.5" class="net_3"/>
  <line x1="72" x2="72" y1="506.5" y2="182.5" class="net_3"/>
  <line x1="72" x2="297" y1="182.5" y2="182.5" class="net_3"/>
  <line x1="297" x2="297" y1="182.5" y2="253.5" class="net_3"/>
  <line x1="297" x2="323.6666666666667" y1="253.5" y2="253.5" class="net_3"/>
  <circle cx="297" cy="182.5" r="2" style="fill:#000" class="net_3"/>
  <line x1="323.6666666666667" x2="323.6666666666667" y1="253.5" y2="238.5" class="net_3"/>
  <line x1="40" x2="72" y1="506.5" y2="506.5" class="net_3"/>
  <line x1="72" x2="72" y1="506.5" y2="182.5" class="net_3"/>
  <line x1="72" x2="757" y1="182.5" y2="182.5" class="net_3"/>
  <line x1="757" x2="757" y1="182.5" y2="125.5" class="net_3"/>
  <line x1="828.6666666666666" x2="867" y1="1065.5" y2="1065.5" class="net_72,73,74,75"/>
  <line x1="190" x2="227" y1="721" y2="721" class="net_6"/>
  <line x1="227" x2="227" y1="721" y2="1088" class="net_6"/>
  <line x1="227" x2="877" y1="1088" y2="1088" class="net_6"/>
  <line x1="877" x2="877" y1="1088" y2="1070.5" class="net_6"/>
  <line x1="887" x2="925" y1="1055.5" y2="1055.5" class="net_124,125,126,127"/>
  <line x1="925" x2="925" y1="1055.5" y2="862" class="net_124,125,126,127"/>
  <line x1="925" x2="62" y1="862" y2="862" class="net_124,125,126,127"/>
  <line x1="62" x2="62" y1="862" y2="526.5" class="net_124,125,126,127"/>
  <line x1="62" x2="98.66666666666667" y1="526.5" y2="526.5" class="net_124,125,126,127"/>
  <line x1="647" x2="685.3333333333334" y1="967.5" y2="967.5" class="net_64,65,66,67"/>
  <line x1="190" x2="217" y1="741" y2="741" class="net_4"/>
  <line x1="217" x2="217" y1="741" y2="990" class="net_4"/>
  <line x1="217" x2="695.3333333333334" y1="990" y2="990" class="net_4"/>
  <line x1="695.3333333333334" x2="695.3333333333334" y1="990" y2="972.5" class="net_4"/>
  <line x1="705.3333333333334" x2="722" y1="957.5" y2="957.5" class="net_128,129,130,131"/>
  <line x1="722" x2="722" y1="957.5" y2="1022" class="net_128,129,130,131"/>
  <line x1="722" x2="747" y1="1022" y2="1022" class="net_128,129,130,131"/>
  <line x1="463.6666666666667" x2="487" y1="590" y2="590" class="net_116,117,118,119"/>
  <line x1="487" x2="487" y1="590" y2="455.5" class="net_116,117,118,119"/>
  <circle cx="487" cy="590" r="2" style="fill:#000" class="net_116,117,118,119"/>
  <line x1="487" x2="747" y1="455.5" y2="455.5" class="net_116,117,118,119"/>
  <line x1="463.6666666666667" x2="487" y1="590" y2="590" class="net_116,117,118,119"/>
  <line x1="487" x2="487" y1="590" y2="915" class="net_116,117,118,119"/>
  <line x1="487" x2="502" y1="915" y2="915" class="net_116,117,118,119"/>
  <line x1="712" x2="722" y1="831" y2="831" class="net_157,158,159,160"/>
  <line x1="722" x2="722" y1="831" y2="475.5" class="net_157,158,159,160"/>
  <circle cx="722" cy="831" r="2" style="fill:#000" class="net_157,158,159,160"/>
  <line x1="722" x2="747" y1="475.5" y2="475.5" class="net_157,158,159,160"/>
  <line x1="712" x2="747" y1="831" y2="831" class="net_157,158,159,160"/>
  <line x1="197" x2="237" y1="223.5" y2="223.5" class="net_56,57,58,59"/>
  <line x1="190" x2="207" y1="761" y2="761" class="net_11"/>
  <line x1="207" x2="207" y1="761" y2="263.5" class="net_11"/>
  <line x1="207" x2="247" y1="263.5" y2="263.5" class="net_11"/>
  <line x1="247" x2="247" y1="263.5" y2="228.5" class="net_11"/>
  <line x1="828.6666666666666" x2="867" y1="408" y2="408" class="net_48,49,50,51"/>
  <line x1="190" x2="207" y1="781" y2="781" class="net_9"/>
  <line x1="207" x2="207" y1="781" y2="873" class="net_9"/>
  <line x1="207" x2="877" y1="873" y2="873" class="net_9"/>
  <line x1="877" x2="877" y1="873" y2="413" class="net_9"/>
  <line x1="887" x2="935" y1="398" y2="398" class="net_136,137,138,139"/>
  <line x1="935" x2="935" y1="398" y2="1099" class="net_136,137,138,139"/>
  <line x1="935" x2="52" y1="1099" y2="1099" class="net_136,137,138,139"/>
  <line x1="52" x2="52" y1="1099" y2="431.5" class="net_136,137,138,139"/>
  <line x1="52" x2="98.66666666666667" y1="431.5" y2="431.5" class="net_136,137,138,139"/>
  <line x1="647" x2="685.3333333333334" y1="332" y2="332" class="net_40,41,42,43"/>
  <line x1="190" x2="695.3333333333334" y1="801" y2="801" class="net_7"/>
  <line x1="695.3333333333334" x2="695.3333333333334" y1="801" y2="337" class="net_7"/>
  <line x1="705.3333333333334" x2="722" y1="322" y2="322" class="net_140,141,142,143"/>
  <line x1="722" x2="722" y1="322" y2="390.5" class="net_140,141,142,143"/>
  <line x1="722" x2="747" y1="390.5" y2="390.5" class="net_140,141,142,143"/>
  <line x1="467" x2="502" y1="266" y2="266" class="net_32,33,34,35"/>
  <line x1="189.5" x2="189.5" y1="821.5" y2="895" class="net_5"/>
  <line x1="189.5" x2="512" y1="895" y2="895" class="net_5"/>
  <line x1="512" x2="512" y1="895" y2="271" class="net_5"/>
  <line x1="522" x2="532" y1="256" y2="256" class="net_144,145,146,147"/>
  <line x1="532" x2="532" y1="256" y2="268.5" class="net_144,145,146,147"/>
  <line x1="532" x2="560.3333333333334" y1="268.5" y2="268.5" class="net_144,145,146,147"/>
  <line x1="257" x2="277" y1="213.5" y2="213.5" class="net_132,133,134,135"/>
  <line x1="277" x2="277" y1="213.5" y2="535.5" class="net_132,133,134,135"/>
  <line x1="277" x2="732" y1="535.5" y2="535.5" class="net_132,133,134,135"/>
  <line x1="732" x2="732" y1="535.5" y2="811" class="net_132,133,134,135"/>
  <circle cx="277" cy="213.5" r="2" style="fill:#000" class="net_132,133,134,135"/>
  <line x1="732" x2="747" y1="811" y2="811" class="net_132,133,134,135"/>
  <line x1="257" x2="313.6666666666667" y1="213.5" y2="213.5" class="net_132,133,134,135"/>
  <line x1="710.3333333333334" x2="747" y1="100.5" y2="100.5" class="net_20,21,22,23,24,25,26,27"/>
  <line x1="712" x2="722" y1="43" y2="43" class="net_165,166,167,168,169,170,171,172"/>
  <line x1="722" x2="722" y1="43" y2="120.5" class="net_165,166,167,168,169,170,171,172"/>
  <line x1="722" x2="747" y1="120.5" y2="120.5" class="net_165,166,167,168,169,170,171,172"/>
  <line x1="832" x2="867" y1="906" y2="906" class="net_12,13,14,15"/>
  <line x1="832" x2="867" y1="981" y2="981" class="net_16,17,18,19"/>
</svg>
